<svg width="100%" viewBox="0 0 1290 810" role="img" xmlns="http://www.w3.org/2000/svg" style="">
<title style="fill:rgb(0, 0, 0);stroke:none;color:rgb(255, 255, 255);stroke-width:1px;stroke-linecap:butt;stroke-linejoin:miter;opacity:1;font-family:&quot;Anthropic Sans&quot;, -apple-system, &quot;system-ui&quot;, &quot;Segoe UI&quot;, sans-serif;font-size:16px;font-weight:400;text-anchor:start;dominant-baseline:auto">Daedelus MacBook Air 2022 wallpaper</title>
<desc style="fill:rgb(0, 0, 0);stroke:none;color:rgb(255, 255, 255);stroke-width:1px;stroke-linecap:butt;stroke-linejoin:miter;opacity:1;font-family:&quot;Anthropic Sans&quot;, -apple-system, &quot;system-ui&quot;, &quot;Segoe UI&quot;, sans-serif;font-size:16px;font-weight:400;text-anchor:start;dominant-baseline:auto">Black background with a glowing indigo Daedelus wing logo centred on a 1280x800 canvas</desc>

<defs>
  <radialGradient id="bg-glow" cx="50%" cy="50%" r="45%">
    <stop offset="0%" stop-color="#4f46e5" stop-opacity="0.14"/>
    <stop offset="55%" stop-color="#3730a3" stop-opacity="0.05"/>
    <stop offset="100%" stop-color="#080810" stop-opacity="0"/>
  </radialGradient>
  <radialGradient id="wg" cx="50%" cy="50%" r="50%">
    <stop offset="0%" stop-color="#c7d2fe" stop-opacity="0.95"/>
    <stop offset="100%" stop-color="#6366f1" stop-opacity="0.55"/>
  </radialGradient>
  <filter id="blur3">
    <feGaussianBlur stdDeviation="4"/>
  </filter>
  <filter id="blur6">
    <feGaussianBlur stdDeviation="8"/>
  </filter>
</defs>

<!-- Background -->
<rect width="1280" height="800" fill="#080810" style="fill:rgb(8, 8, 16);stroke:none;color:rgb(255, 255, 255);stroke-width:1px;stroke-linecap:butt;stroke-linejoin:miter;opacity:1;font-family:&quot;Anthropic Sans&quot;, -apple-system, &quot;system-ui&quot;, &quot;Segoe UI&quot;, sans-serif;font-size:16px;font-weight:400;text-anchor:start;dominant-baseline:auto"/>

<!-- Radial glow -->
<ellipse cx="640" cy="400" rx="380" ry="300" fill="url(#bg-glow)" style="stroke:none;color:rgb(255, 255, 255);stroke-width:1px;stroke-linecap:butt;stroke-linejoin:miter;opacity:1;font-family:&quot;Anthropic Sans&quot;, -apple-system, &quot;system-ui&quot;, &quot;Segoe UI&quot;, sans-serif;font-size:16px;font-weight:400;text-anchor:start;dominant-baseline:auto"/>

<!-- ══════════════════════════════════════════ -->
<!-- STAR FIELD                                -->
<!-- ══════════════════════════════════════════ -->
<g opacity="0.28" style="fill:rgb(0, 0, 0);stroke:none;color:rgb(255, 255, 255);stroke-width:1px;stroke-linecap:butt;stroke-linejoin:miter;opacity:0.28;font-family:&quot;Anthropic Sans&quot;, -apple-system, &quot;system-ui&quot;, &quot;Segoe UI&quot;, sans-serif;font-size:16px;font-weight:400;text-anchor:start;dominant-baseline:auto">
  <circle cx="80" cy="60" r="1.2" fill="#a5b4fc" style="fill:rgb(165, 180, 252);stroke:none;color:rgb(255, 255, 255);stroke-width:1px;stroke-linecap:butt;stroke-linejoin:miter;opacity:1;font-family:&quot;Anthropic Sans&quot;, -apple-system, &quot;system-ui&quot;, &quot;Segoe UI&quot;, sans-serif;font-size:16px;font-weight:400;text-anchor:start;dominant-baseline:auto"/>  <circle cx="200" cy="40" r="0.9" fill="#c7d2fe" style="fill:rgb(199, 210, 254);stroke:none;color:rgb(255, 255, 255);stroke-width:1px;stroke-linecap:butt;stroke-linejoin:miter;opacity:1;font-family:&quot;Anthropic Sans&quot;, -apple-system, &quot;system-ui&quot;, &quot;Segoe UI&quot;, sans-serif;font-size:16px;font-weight:400;text-anchor:start;dominant-baseline:auto"/>
  <circle cx="380" cy="80" r="1" fill="#818cf8" style="fill:rgb(129, 140, 248);stroke:none;color:rgb(255, 255, 255);stroke-width:1px;stroke-linecap:butt;stroke-linejoin:miter;opacity:1;font-family:&quot;Anthropic Sans&quot;, -apple-system, &quot;system-ui&quot;, &quot;Segoe UI&quot;, sans-serif;font-size:16px;font-weight:400;text-anchor:start;dominant-baseline:auto"/>    <circle cx="520" cy="30" r="1.3" fill="#a5b4fc" style="fill:rgb(165, 180, 252);stroke:none;color:rgb(255, 255, 255);stroke-width:1px;stroke-linecap:butt;stroke-linejoin:miter;opacity:1;font-family:&quot;Anthropic Sans&quot;, -apple-system, &quot;system-ui&quot;, &quot;Segoe UI&quot;, sans-serif;font-size:16px;font-weight:400;text-anchor:start;dominant-baseline:auto"/>
  <circle cx="760" cy="55" r="0.8" fill="#c7d2fe" style="fill:rgb(199, 210, 254);stroke:none;color:rgb(255, 255, 255);stroke-width:1px;stroke-linecap:butt;stroke-linejoin:miter;opacity:1;font-family:&quot;Anthropic Sans&quot;, -apple-system, &quot;system-ui&quot;, &quot;Segoe UI&quot;, sans-serif;font-size:16px;font-weight:400;text-anchor:start;dominant-baseline:auto"/>  <circle cx="900" cy="35" r="1.1" fill="#818cf8" style="fill:rgb(129, 140, 248);stroke:none;color:rgb(255, 255, 255);stroke-width:1px;stroke-linecap:butt;stroke-linejoin:miter;opacity:1;font-family:&quot;Anthropic Sans&quot;, -apple-system, &quot;system-ui&quot;, &quot;Segoe UI&quot;, sans-serif;font-size:16px;font-weight:400;text-anchor:start;dominant-baseline:auto"/>
  <circle cx="1060" cy="70" r="1" fill="#a5b4fc" style="fill:rgb(165, 180, 252);stroke:none;color:rgb(255, 255, 255);stroke-width:1px;stroke-linecap:butt;stroke-linejoin:miter;opacity:1;font-family:&quot;Anthropic Sans&quot;, -apple-system, &quot;system-ui&quot;, &quot;Segoe UI&quot;, sans-serif;font-size:16px;font-weight:400;text-anchor:start;dominant-baseline:auto"/>   <circle cx="1200" cy="45" r="0.9" fill="#c7d2fe" style="fill:rgb(199, 210, 254);stroke:none;color:rgb(255, 255, 255);stroke-width:1px;stroke-linecap:butt;stroke-linejoin:miter;opacity:1;font-family:&quot;Anthropic Sans&quot;, -apple-system, &quot;system-ui&quot;, &quot;Segoe UI&quot;, sans-serif;font-size:16px;font-weight:400;text-anchor:start;dominant-baseline:auto"/>
  <circle cx="50" cy="180" r="1" fill="#6366f1" style="fill:rgb(99, 102, 241);stroke:none;color:rgb(255, 255, 255);stroke-width:1px;stroke-linecap:butt;stroke-linejoin:miter;opacity:1;font-family:&quot;Anthropic Sans&quot;, -apple-system, &quot;system-ui&quot;, &quot;Segoe UI&quot;, sans-serif;font-size:16px;font-weight:400;text-anchor:start;dominant-baseline:auto"/>    <circle cx="170" cy="220" r="0.8" fill="#a5b4fc" style="fill:rgb(165, 180, 252);stroke:none;color:rgb(255, 255, 255);stroke-width:1px;stroke-linecap:butt;stroke-linejoin:miter;opacity:1;font-family:&quot;Anthropic Sans&quot;, -apple-system, &quot;system-ui&quot;, &quot;Segoe UI&quot;, sans-serif;font-size:16px;font-weight:400;text-anchor:start;dominant-baseline:auto"/>
  <circle cx="1100" cy="160" r="1.2" fill="#818cf8" style="fill:rgb(129, 140, 248);stroke:none;color:rgb(255, 255, 255);stroke-width:1px;stroke-linecap:butt;stroke-linejoin:miter;opacity:1;font-family:&quot;Anthropic Sans&quot;, -apple-system, &quot;system-ui&quot;, &quot;Segoe UI&quot;, sans-serif;font-size:16px;font-weight:400;text-anchor:start;dominant-baseline:auto"/><circle cx="1230" cy="200" r="0.9" fill="#a5b4fc" style="fill:rgb(165, 180, 252);stroke:none;color:rgb(255, 255, 255);stroke-width:1px;stroke-linecap:butt;stroke-linejoin:miter;opacity:1;font-family:&quot;Anthropic Sans&quot;, -apple-system, &quot;system-ui&quot;, &quot;Segoe UI&quot;, sans-serif;font-size:16px;font-weight:400;text-anchor:start;dominant-baseline:auto"/>
  <circle cx="60" cy="600" r="1" fill="#c7d2fe" style="fill:rgb(199, 210, 254);stroke:none;color:rgb(255, 255, 255);stroke-width:1px;stroke-linecap:butt;stroke-linejoin:miter;opacity:1;font-family:&quot;Anthropic Sans&quot;, -apple-system, &quot;system-ui&quot;, &quot;Segoe UI&quot;, sans-serif;font-size:16px;font-weight:400;text-anchor:start;dominant-baseline:auto"/>    <circle cx="180" cy="650" r="1.2" fill="#818cf8" style="fill:rgb(129, 140, 248);stroke:none;color:rgb(255, 255, 255);stroke-width:1px;stroke-linecap:butt;stroke-linejoin:miter;opacity:1;font-family:&quot;Anthropic Sans&quot;, -apple-system, &quot;system-ui&quot;, &quot;Segoe UI&quot;, sans-serif;font-size:16px;font-weight:400;text-anchor:start;dominant-baseline:auto"/>
  <circle cx="360" cy="720" r="0.9" fill="#a5b4fc" style="fill:rgb(165, 180, 252);stroke:none;color:rgb(255, 255, 255);stroke-width:1px;stroke-linecap:butt;stroke-linejoin:miter;opacity:1;font-family:&quot;Anthropic Sans&quot;, -apple-system, &quot;system-ui&quot;, &quot;Segoe UI&quot;, sans-serif;font-size:16px;font-weight:400;text-anchor:start;dominant-baseline:auto"/> <circle cx="500" cy="740" r="1" fill="#c7d2fe" style="fill:rgb(199, 210, 254);stroke:none;color:rgb(255, 255, 255);stroke-width:1px;stroke-linecap:butt;stroke-linejoin:miter;opacity:1;font-family:&quot;Anthropic Sans&quot;, -apple-system, &quot;system-ui&quot;, &quot;Segoe UI&quot;, sans-serif;font-size:16px;font-weight:400;text-anchor:start;dominant-baseline:auto"/>
  <circle cx="780" cy="710" r="1.1" fill="#818cf8" style="fill:rgb(129, 140, 248);stroke:none;color:rgb(255, 255, 255);stroke-width:1px;stroke-linecap:butt;stroke-linejoin:miter;opacity:1;font-family:&quot;Anthropic Sans&quot;, -apple-system, &quot;system-ui&quot;, &quot;Segoe UI&quot;, sans-serif;font-size:16px;font-weight:400;text-anchor:start;dominant-baseline:auto"/> <circle cx="940" cy="730" r="0.9" fill="#a5b4fc" style="fill:rgb(165, 180, 252);stroke:none;color:rgb(255, 255, 255);stroke-width:1px;stroke-linecap:butt;stroke-linejoin:miter;opacity:1;font-family:&quot;Anthropic Sans&quot;, -apple-system, &quot;system-ui&quot;, &quot;Segoe UI&quot;, sans-serif;font-size:16px;font-weight:400;text-anchor:start;dominant-baseline:auto"/>
  <circle cx="1080" cy="680" r="1" fill="#c7d2fe" style="fill:rgb(199, 210, 254);stroke:none;color:rgb(255, 255, 255);stroke-width:1px;stroke-linecap:butt;stroke-linejoin:miter;opacity:1;font-family:&quot;Anthropic Sans&quot;, -apple-system, &quot;system-ui&quot;, &quot;Segoe UI&quot;, sans-serif;font-size:16px;font-weight:400;text-anchor:start;dominant-baseline:auto"/>  <circle cx="1220" cy="640" r="1.2" fill="#818cf8" style="fill:rgb(129, 140, 248);stroke:none;color:rgb(255, 255, 255);stroke-width:1px;stroke-linecap:butt;stroke-linejoin:miter;opacity:1;font-family:&quot;Anthropic Sans&quot;, -apple-system, &quot;system-ui&quot;, &quot;Segoe UI&quot;, sans-serif;font-size:16px;font-weight:400;text-anchor:start;dominant-baseline:auto"/>
  <circle cx="30" cy="390" r="0.9" fill="#a5b4fc" style="fill:rgb(165, 180, 252);stroke:none;color:rgb(255, 255, 255);stroke-width:1px;stroke-linecap:butt;stroke-linejoin:miter;opacity:1;font-family:&quot;Anthropic Sans&quot;, -apple-system, &quot;system-ui&quot;, &quot;Segoe UI&quot;, sans-serif;font-size:16px;font-weight:400;text-anchor:start;dominant-baseline:auto"/>  <circle cx="1250" cy="370" r="1" fill="#c7d2fe" style="fill:rgb(199, 210, 254);stroke:none;color:rgb(255, 255, 255);stroke-width:1px;stroke-linecap:butt;stroke-linejoin:miter;opacity:1;font-family:&quot;Anthropic Sans&quot;, -apple-system, &quot;system-ui&quot;, &quot;Segoe UI&quot;, sans-serif;font-size:16px;font-weight:400;text-anchor:start;dominant-baseline:auto"/>
  <circle cx="140" cy="480" r="1.1" fill="#6366f1" style="fill:rgb(99, 102, 241);stroke:none;color:rgb(255, 255, 255);stroke-width:1px;stroke-linecap:butt;stroke-linejoin:miter;opacity:1;font-family:&quot;Anthropic Sans&quot;, -apple-system, &quot;system-ui&quot;, &quot;Segoe UI&quot;, sans-serif;font-size:16px;font-weight:400;text-anchor:start;dominant-baseline:auto"/> <circle cx="1140" cy="460" r="0.8" fill="#6366f1" style="fill:rgb(99, 102, 241);stroke:none;color:rgb(255, 255, 255);stroke-width:1px;stroke-linecap:butt;stroke-linejoin:miter;opacity:1;font-family:&quot;Anthropic Sans&quot;, -apple-system, &quot;system-ui&quot;, &quot;Segoe UI&quot;, sans-serif;font-size:16px;font-weight:400;text-anchor:start;dominant-baseline:auto"/>
  <circle cx="290" cy="150" r="1" fill="#c7d2fe" style="fill:rgb(199, 210, 254);stroke:none;color:rgb(255, 255, 255);stroke-width:1px;stroke-linecap:butt;stroke-linejoin:miter;opacity:1;font-family:&quot;Anthropic Sans&quot;, -apple-system, &quot;system-ui&quot;, &quot;Segoe UI&quot;, sans-serif;font-size:16px;font-weight:400;text-anchor:start;dominant-baseline:auto"/>   <circle cx="990" cy="140" r="1.2" fill="#a5b4fc" style="fill:rgb(165, 180, 252);stroke:none;color:rgb(255, 255, 255);stroke-width:1px;stroke-linecap:butt;stroke-linejoin:miter;opacity:1;font-family:&quot;Anthropic Sans&quot;, -apple-system, &quot;system-ui&quot;, &quot;Segoe UI&quot;, sans-serif;font-size:16px;font-weight:400;text-anchor:start;dominant-baseline:auto"/>
  <circle cx="430" cy="760" r="0.8" fill="#818cf8" style="fill:rgb(129, 140, 248);stroke:none;color:rgb(255, 255, 255);stroke-width:1px;stroke-linecap:butt;stroke-linejoin:miter;opacity:1;font-family:&quot;Anthropic Sans&quot;, -apple-system, &quot;system-ui&quot;, &quot;Segoe UI&quot;, sans-serif;font-size:16px;font-weight:400;text-anchor:start;dominant-baseline:auto"/> <circle cx="850" cy="755" r="1" fill="#c7d2fe" style="fill:rgb(199, 210, 254);stroke:none;color:rgb(255, 255, 255);stroke-width:1px;stroke-linecap:butt;stroke-linejoin:miter;opacity:1;font-family:&quot;Anthropic Sans&quot;, -apple-system, &quot;system-ui&quot;, &quot;Segoe UI&quot;, sans-serif;font-size:16px;font-weight:400;text-anchor:start;dominant-baseline:auto"/>
</g>

<!-- ══════════════════════════════════════════ -->
<!-- WINGS — centred at 640, 390             -->
<!-- ══════════════════════════════════════════ -->

<!-- LEFT WING — deep glow -->
<g filter="url(#blur6)" opacity="0.35" style="fill:rgb(0, 0, 0);stroke:none;color:rgb(255, 255, 255);stroke-width:1px;stroke-linecap:butt;stroke-linejoin:miter;opacity:0.35;font-family:&quot;Anthropic Sans&quot;, -apple-system, &quot;system-ui&quot;, &quot;Segoe UI&quot;, sans-serif;font-size:16px;font-weight:400;text-anchor:start;dominant-baseline:auto">
  <path d="M640,390 C610,345 530,295 430,268 C360,250 285,256 240,272 C280,300 355,312 430,318 C520,327 590,358 640,390 Z" fill="#818cf8" style="fill:rgb(129, 140, 248);stroke:none;color:rgb(255, 255, 255);stroke-width:1px;stroke-linecap:butt;stroke-linejoin:miter;opacity:1;font-family:&quot;Anthropic Sans&quot;, -apple-system, &quot;system-ui&quot;, &quot;Segoe UI&quot;, sans-serif;font-size:16px;font-weight:400;text-anchor:start;dominant-baseline:auto"/>
  <path d="M640,390 C608,375 558,348 498,335 C445,323 385,330 345,348 C390,361 445,361 505,364 C568,368 610,378 640,390 Z" fill="#6366f1" style="fill:rgb(99, 102, 241);stroke:none;color:rgb(255, 255, 255);stroke-width:1px;stroke-linecap:butt;stroke-linejoin:miter;opacity:1;font-family:&quot;Anthropic Sans&quot;, -apple-system, &quot;system-ui&quot;, &quot;Segoe UI&quot;, sans-serif;font-size:16px;font-weight:400;text-anchor:start;dominant-baseline:auto"/>
  <path d="M640,390 C618,382 585,368 548,363 C516,358 482,365 456,378 C484,384 516,382 552,381 C590,380 618,385 640,390 Z" fill="#a5b4fc" style="fill:rgb(165, 180, 252);stroke:none;color:rgb(255, 255, 255);stroke-width:1px;stroke-linecap:butt;stroke-linejoin:miter;opacity:1;font-family:&quot;Anthropic Sans&quot;, -apple-system, &quot;system-ui&quot;, &quot;Segoe UI&quot;, sans-serif;font-size:16px;font-weight:400;text-anchor:start;dominant-baseline:auto"/>
  <path d="M640,390 C610,406 555,428 490,448 C430,466 362,468 318,457 C360,440 418,436 488,428 C558,421 606,407 640,390 Z" fill="#818cf8" style="fill:rgb(129, 140, 248);stroke:none;color:rgb(255, 255, 255);stroke-width:1px;stroke-linecap:butt;stroke-linejoin:miter;opacity:1;font-family:&quot;Anthropic Sans&quot;, -apple-system, &quot;system-ui&quot;, &quot;Segoe UI&quot;, sans-serif;font-size:16px;font-weight:400;text-anchor:start;dominant-baseline:auto"/>
  <path d="M640,390 C614,402 572,420 522,432 C476,443 424,444 388,435 C428,422 476,419 526,414 C574,410 614,399 640,390 Z" fill="#6366f1" style="fill:rgb(99, 102, 241);stroke:none;color:rgb(255, 255, 255);stroke-width:1px;stroke-linecap:butt;stroke-linejoin:miter;opacity:1;font-family:&quot;Anthropic Sans&quot;, -apple-system, &quot;system-ui&quot;, &quot;Segoe UI&quot;, sans-serif;font-size:16px;font-weight:400;text-anchor:start;dominant-baseline:auto"/>
</g>

<!-- LEFT WING — sharp strokes -->
<path d="M640,390 C610,345 530,295 430,268 C360,250 285,256 240,272 C280,300 355,312 430,318 C520,327 590,358 640,390 Z" fill="url(#wg)" opacity="0.10" style="stroke:none;color:rgb(255, 255, 255);stroke-width:1px;stroke-linecap:butt;stroke-linejoin:miter;opacity:0.1;font-family:&quot;Anthropic Sans&quot;, -apple-system, &quot;system-ui&quot;, &quot;Segoe UI&quot;, sans-serif;font-size:16px;font-weight:400;text-anchor:start;dominant-baseline:auto"/>
<path d="M640,390 C610,345 530,295 430,268 C360,250 285,256 240,272 C280,300 355,312 430,318 C520,327 590,358 640,390 Z" fill="none" stroke="#818cf8" stroke-width="1.2" opacity="0.75" style="fill:none;stroke:rgb(129, 140, 248);color:rgb(255, 255, 255);stroke-width:1.2px;stroke-linecap:butt;stroke-linejoin:miter;opacity:0.75;font-family:&quot;Anthropic Sans&quot;, -apple-system, &quot;system-ui&quot;, &quot;Segoe UI&quot;, sans-serif;font-size:16px;font-weight:400;text-anchor:start;dominant-baseline:auto"/>

<path d="M640,390 C608,375 558,348 498,335 C445,323 385,330 345,348 C390,361 445,361 505,364 C568,368 610,378 640,390 Z" fill="url(#wg)" opacity="0.16" style="stroke:none;color:rgb(255, 255, 255);stroke-width:1px;stroke-linecap:butt;stroke-linejoin:miter;opacity:0.16;font-family:&quot;Anthropic Sans&quot;, -apple-system, &quot;system-ui&quot;, &quot;Segoe UI&quot;, sans-serif;font-size:16px;font-weight:400;text-anchor:start;dominant-baseline:auto"/>
<path d="M640,390 C608,375 558,348 498,335 C445,323 385,330 345,348 C390,361 445,361 505,364 C568,368 610,378 640,390 Z" fill="none" stroke="#a5b4fc" stroke-width="1" opacity="0.65" style="fill:none;stroke:rgb(165, 180, 252);color:rgb(255, 255, 255);stroke-width:1px;stroke-linecap:butt;stroke-linejoin:miter;opacity:0.65;font-family:&quot;Anthropic Sans&quot;, -apple-system, &quot;system-ui&quot;, &quot;Segoe UI&quot;, sans-serif;font-size:16px;font-weight:400;text-anchor:start;dominant-baseline:auto"/>

<path d="M640,390 C618,382 585,368 548,363 C516,358 482,365 456,378 C484,384 516,382 552,381 C590,380 618,385 640,390 Z" fill="url(#wg)" opacity="0.24" style="stroke:none;color:rgb(255, 255, 255);stroke-width:1px;stroke-linecap:butt;stroke-linejoin:miter;opacity:0.24;font-family:&quot;Anthropic Sans&quot;, -apple-system, &quot;system-ui&quot;, &quot;Segoe UI&quot;, sans-serif;font-size:16px;font-weight:400;text-anchor:start;dominant-baseline:auto"/>
<path d="M640,390 C618,382 585,368 548,363 C516,358 482,365 456,378 C484,384 516,382 552,381 C590,380 618,385 640,390 Z" fill="none" stroke="#c7d2fe" stroke-width="0.9" opacity="0.75" style="fill:none;stroke:rgb(199, 210, 254);color:rgb(255, 255, 255);stroke-width:0.9px;stroke-linecap:butt;stroke-linejoin:miter;opacity:0.75;font-family:&quot;Anthropic Sans&quot;, -apple-system, &quot;system-ui&quot;, &quot;Segoe UI&quot;, sans-serif;font-size:16px;font-weight:400;text-anchor:start;dominant-baseline:auto"/>

<path d="M640,390 C610,406 555,428 490,448 C430,466 362,468 318,457 C360,440 418,436 488,428 C558,421 606,407 640,390 Z" fill="url(#wg)" opacity="0.13" style="stroke:none;color:rgb(255, 255, 255);stroke-width:1px;stroke-linecap:butt;stroke-linejoin:miter;opacity:0.13;font-family:&quot;Anthropic Sans&quot;, -apple-system, &quot;system-ui&quot;, &quot;Segoe UI&quot;, sans-serif;font-size:16px;font-weight:400;text-anchor:start;dominant-baseline:auto"/>
<path d="M640,390 C610,406 555,428 490,448 C430,466 362,468 318,457 C360,440 418,436 488,428 C558,421 606,407 640,390 Z" fill="none" stroke="#818cf8" stroke-width="1" opacity="0.55" style="fill:none;stroke:rgb(129, 140, 248);color:rgb(255, 255, 255);stroke-width:1px;stroke-linecap:butt;stroke-linejoin:miter;opacity:0.55;font-family:&quot;Anthropic Sans&quot;, -apple-system, &quot;system-ui&quot;, &quot;Segoe UI&quot;, sans-serif;font-size:16px;font-weight:400;text-anchor:start;dominant-baseline:auto"/>

<path d="M640,390 C614,402 572,420 522,432 C476,443 424,444 388,435 C428,422 476,419 526,414 C574,410 614,399 640,390 Z" fill="url(#wg)" opacity="0.20" style="stroke:none;color:rgb(255, 255, 255);stroke-width:1px;stroke-linecap:butt;stroke-linejoin:miter;opacity:0.2;font-family:&quot;Anthropic Sans&quot;, -apple-system, &quot;system-ui&quot;, &quot;Segoe UI&quot;, sans-serif;font-size:16px;font-weight:400;text-anchor:start;dominant-baseline:auto"/>
<path d="M640,390 C614,402 572,420 522,432 C476,443 424,444 388,435 C428,422 476,419 526,414 C574,410 614,399 640,390 Z" fill="none" stroke="#a5b4fc" stroke-width="0.9" opacity="0.65" style="fill:none;stroke:rgb(165, 180, 252);color:rgb(255, 255, 255);stroke-width:0.9px;stroke-linecap:butt;stroke-linejoin:miter;opacity:0.65;font-family:&quot;Anthropic Sans&quot;, -apple-system, &quot;system-ui&quot;, &quot;Segoe UI&quot;, sans-serif;font-size:16px;font-weight:400;text-anchor:start;dominant-baseline:auto"/>

<!-- RIGHT WING — deep glow (mirror) -->
<g filter="url(#blur6)" opacity="0.35" style="fill:rgb(0, 0, 0);stroke:none;color:rgb(255, 255, 255);stroke-width:1px;stroke-linecap:butt;stroke-linejoin:miter;opacity:0.35;font-family:&quot;Anthropic Sans&quot;, -apple-system, &quot;system-ui&quot;, &quot;Segoe UI&quot;, sans-serif;font-size:16px;font-weight:400;text-anchor:start;dominant-baseline:auto">
  <path d="M640,390 C670,345 750,295 850,268 C920,250 995,256 1040,272 C1000,300 925,312 850,318 C760,327 690,358 640,390 Z" fill="#818cf8" style="fill:rgb(129, 140, 248);stroke:none;color:rgb(255, 255, 255);stroke-width:1px;stroke-linecap:butt;stroke-linejoin:miter;opacity:1;font-family:&quot;Anthropic Sans&quot;, -apple-system, &quot;system-ui&quot;, &quot;Segoe UI&quot;, sans-serif;font-size:16px;font-weight:400;text-anchor:start;dominant-baseline:auto"/>
  <path d="M640,390 C672,375 722,348 782,335 C835,323 895,330 935,348 C890,361 835,361 775,364 C712,368 670,378 640,390 Z" fill="#6366f1" style="fill:rgb(99, 102, 241);stroke:none;color:rgb(255, 255, 255);stroke-width:1px;stroke-linecap:butt;stroke-linejoin:miter;opacity:1;font-family:&quot;Anthropic Sans&quot;, -apple-system, &quot;system-ui&quot;, &quot;Segoe UI&quot;, sans-serif;font-size:16px;font-weight:400;text-anchor:start;dominant-baseline:auto"/>
  <path d="M640,390 C662,382 695,368 732,363 C764,358 798,365 824,378 C796,384 764,382 728,381 C690,380 662,385 640,390 Z" fill="#a5b4fc" style="fill:rgb(165, 180, 252);stroke:none;color:rgb(255, 255, 255);stroke-width:1px;stroke-linecap:butt;stroke-linejoin:miter;opacity:1;font-family:&quot;Anthropic Sans&quot;, -apple-system, &quot;system-ui&quot;, &quot;Segoe UI&quot;, sans-serif;font-size:16px;font-weight:400;text-anchor:start;dominant-baseline:auto"/>
  <path d="M640,390 C670,406 725,428 790,448 C850,466 918,468 962,457 C920,440 862,436 792,428 C722,421 674,407 640,390 Z" fill="#818cf8" style="fill:rgb(129, 140, 248);stroke:none;color:rgb(255, 255, 255);stroke-width:1px;stroke-linecap:butt;stroke-linejoin:miter;opacity:1;font-family:&quot;Anthropic Sans&quot;, -apple-system, &quot;system-ui&quot;, &quot;Segoe UI&quot;, sans-serif;font-size:16px;font-weight:400;text-anchor:start;dominant-baseline:auto"/>
  <path d="M640,390 C666,402 708,420 758,432 C804,443 856,444 892,435 C852,422 804,419 754,414 C706,410 666,399 640,390 Z" fill="#6366f1" style="fill:rgb(99, 102, 241);stroke:none;color:rgb(255, 255, 255);stroke-width:1px;stroke-linecap:butt;stroke-linejoin:miter;opacity:1;font-family:&quot;Anthropic Sans&quot;, -apple-system, &quot;system-ui&quot;, &quot;Segoe UI&quot;, sans-serif;font-size:16px;font-weight:400;text-anchor:start;dominant-baseline:auto"/>
</g>

<!-- RIGHT WING — sharp strokes -->
<path d="M640,390 C670,345 750,295 850,268 C920,250 995,256 1040,272 C1000,300 925,312 850,318 C760,327 690,358 640,390 Z" fill="url(#wg)" opacity="0.10" style="stroke:none;color:rgb(255, 255, 255);stroke-width:1px;stroke-linecap:butt;stroke-linejoin:miter;opacity:0.1;font-family:&quot;Anthropic Sans&quot;, -apple-system, &quot;system-ui&quot;, &quot;Segoe UI&quot;, sans-serif;font-size:16px;font-weight:400;text-anchor:start;dominant-baseline:auto"/>
<path d="M640,390 C670,345 750,295 850,268 C920,250 995,256 1040,272 C1000,300 925,312 850,318 C760,327 690,358 640,390 Z" fill="none" stroke="#818cf8" stroke-width="1.2" opacity="0.75" style="fill:none;stroke:rgb(129, 140, 248);color:rgb(255, 255, 255);stroke-width:1.2px;stroke-linecap:butt;stroke-linejoin:miter;opacity:0.75;font-family:&quot;Anthropic Sans&quot;, -apple-system, &quot;system-ui&quot;, &quot;Segoe UI&quot;, sans-serif;font-size:16px;font-weight:400;text-anchor:start;dominant-baseline:auto"/>

<path d="M640,390 C672,375 722,348 782,335 C835,323 895,330 935,348 C890,361 835,361 775,364 C712,368 670,378 640,390 Z" fill="url(#wg)" opacity="0.16" style="stroke:none;color:rgb(255, 255, 255);stroke-width:1px;stroke-linecap:butt;stroke-linejoin:miter;opacity:0.16;font-family:&quot;Anthropic Sans&quot;, -apple-system, &quot;system-ui&quot;, &quot;Segoe UI&quot;, sans-serif;font-size:16px;font-weight:400;text-anchor:start;dominant-baseline:auto"/>
<path d="M640,390 C672,375 722,348 782,335 C835,323 895,330 935,348 C890,361 835,361 775,364 C712,368 670,378 640,390 Z" fill="none" stroke="#a5b4fc" stroke-width="1" opacity="0.65" style="fill:none;stroke:rgb(165, 180, 252);color:rgb(255, 255, 255);stroke-width:1px;stroke-linecap:butt;stroke-linejoin:miter;opacity:0.65;font-family:&quot;Anthropic Sans&quot;, -apple-system, &quot;system-ui&quot;, &quot;Segoe UI&quot;, sans-serif;font-size:16px;font-weight:400;text-anchor:start;dominant-baseline:auto"/>

<path d="M640,390 C662,382 695,368 732,363 C764,358 798,365 824,378 C796,384 764,382 728,381 C690,380 662,385 640,390 Z" fill="url(#wg)" opacity="0.24" style="stroke:none;color:rgb(255, 255, 255);stroke-width:1px;stroke-linecap:butt;stroke-linejoin:miter;opacity:0.24;font-family:&quot;Anthropic Sans&quot;, -apple-system, &quot;system-ui&quot;, &quot;Segoe UI&quot;, sans-serif;font-size:16px;font-weight:400;text-anchor:start;dominant-baseline:auto"/>
<path d="M640,390 C662,382 695,368 732,363 C764,358 798,365 824,378 C796,384 764,382 728,381 C690,380 662,385 640,390 Z" fill="none" stroke="#c7d2fe" stroke-width="0.9" opacity="0.75" style="fill:none;stroke:rgb(199, 210, 254);color:rgb(255, 255, 255);stroke-width:0.9px;stroke-linecap:butt;stroke-linejoin:miter;opacity:0.75;font-family:&quot;Anthropic Sans&quot;, -apple-system, &quot;system-ui&quot;, &quot;Segoe UI&quot;, sans-serif;font-size:16px;font-weight:400;text-anchor:start;dominant-baseline:auto"/>

<path d="M640,390 C670,406 725,428 790,448 C850,466 918,468 962,457 C920,440 862,436 792,428 C722,421 674,407 640,390 Z" fill="url(#wg)" opacity="0.13" style="stroke:none;color:rgb(255, 255, 255);stroke-width:1px;stroke-linecap:butt;stroke-linejoin:miter;opacity:0.13;font-family:&quot;Anthropic Sans&quot;, -apple-system, &quot;system-ui&quot;, &quot;Segoe UI&quot;, sans-serif;font-size:16px;font-weight:400;text-anchor:start;dominant-baseline:auto"/>
<path d="M640,390 C670,406 725,428 790,448 C850,466 918,468 962,457 C920,440 862,436 792,428 C722,421 674,407 640,390 Z" fill="none" stroke="#818cf8" stroke-width="1" opacity="0.55" style="fill:none;stroke:rgb(129, 140, 248);color:rgb(255, 255, 255);stroke-width:1px;stroke-linecap:butt;stroke-linejoin:miter;opacity:0.55;font-family:&quot;Anthropic Sans&quot;, -apple-system, &quot;system-ui&quot;, &quot;Segoe UI&quot;, sans-serif;font-size:16px;font-weight:400;text-anchor:start;dominant-baseline:auto"/>

<path d="M640,390 C666,402 708,420 758,432 C804,443 856,444 892,435 C852,422 804,419 754,414 C706,410 666,399 640,390 Z" fill="url(#wg)" opacity="0.20" style="stroke:none;color:rgb(255, 255, 255);stroke-width:1px;stroke-linecap:butt;stroke-linejoin:miter;opacity:0.2;font-family:&quot;Anthropic Sans&quot;, -apple-system, &quot;system-ui&quot;, &quot;Segoe UI&quot;, sans-serif;font-size:16px;font-weight:400;text-anchor:start;dominant-baseline:auto"/>
<path d="M640,390 C666,402 708,420 758,432 C804,443 856,444 892,435 C852,422 804,419 754,414 C706,410 666,399 640,390 Z" fill="none" stroke="#a5b4fc" stroke-width="0.9" opacity="0.65" style="fill:none;stroke:rgb(165, 180, 252);color:rgb(255, 255, 255);stroke-width:0.9px;stroke-linecap:butt;stroke-linejoin:miter;opacity:0.65;font-family:&quot;Anthropic Sans&quot;, -apple-system, &quot;system-ui&quot;, &quot;Segoe UI&quot;, sans-serif;font-size:16px;font-weight:400;text-anchor:start;dominant-baseline:auto"/>

<!-- ══════════════════════════════════════════ -->
<!-- CENTRE SPINE + ORB                        -->
<!-- ══════════════════════════════════════════ -->
<path d="M640,348 C635,362 633,376 633,390 C633,404 635,418 640,432 C645,418 647,404 647,390 C647,376 645,362 640,348 Z" fill="#e0e7ff" opacity="0.88" style="fill:rgb(224, 231, 255);stroke:none;color:rgb(255, 255, 255);stroke-width:1px;stroke-linecap:butt;stroke-linejoin:miter;opacity:0.88;font-family:&quot;Anthropic Sans&quot;, -apple-system, &quot;system-ui&quot;, &quot;Segoe UI&quot;, sans-serif;font-size:16px;font-weight:400;text-anchor:start;dominant-baseline:auto"/>

<!-- Orb glow layers -->
<circle cx="640" cy="390" r="22" fill="#6366f1" opacity="0.12" filter="url(#blur3)" style="fill:rgb(99, 102, 241);stroke:none;color:rgb(255, 255, 255);stroke-width:1px;stroke-linecap:butt;stroke-linejoin:miter;opacity:0.12;font-family:&quot;Anthropic Sans&quot;, -apple-system, &quot;system-ui&quot;, &quot;Segoe UI&quot;, sans-serif;font-size:16px;font-weight:400;text-anchor:start;dominant-baseline:auto"/>
<circle cx="640" cy="390" r="10" fill="#e0e7ff" opacity="0.96" style="fill:rgb(224, 231, 255);stroke:none;color:rgb(255, 255, 255);stroke-width:1px;stroke-linecap:butt;stroke-linejoin:miter;opacity:0.96;font-family:&quot;Anthropic Sans&quot;, -apple-system, &quot;system-ui&quot;, &quot;Segoe UI&quot;, sans-serif;font-size:16px;font-weight:400;text-anchor:start;dominant-baseline:auto"/>
<circle cx="640" cy="390" r="16" fill="none" stroke="#a5b4fc" stroke-width="1" opacity="0.65" style="fill:none;stroke:rgb(165, 180, 252);color:rgb(255, 255, 255);stroke-width:1px;stroke-linecap:butt;stroke-linejoin:miter;opacity:0.65;font-family:&quot;Anthropic Sans&quot;, -apple-system, &quot;system-ui&quot;, &quot;Segoe UI&quot;, sans-serif;font-size:16px;font-weight:400;text-anchor:start;dominant-baseline:auto"/>
<circle cx="640" cy="390" r="26" fill="none" stroke="#6366f1" stroke-width="0.6" opacity="0.35" style="fill:none;stroke:rgb(99, 102, 241);color:rgb(255, 255, 255);stroke-width:0.6px;stroke-linecap:butt;stroke-linejoin:miter;opacity:0.35;font-family:&quot;Anthropic Sans&quot;, -apple-system, &quot;system-ui&quot;, &quot;Segoe UI&quot;, sans-serif;font-size:16px;font-weight:400;text-anchor:start;dominant-baseline:auto"/>
<circle cx="640" cy="390" r="38" fill="none" stroke="#4f46e5" stroke-width="0.5" opacity="0.20" style="fill:none;stroke:rgb(79, 70, 229);color:rgb(255, 255, 255);stroke-width:0.5px;stroke-linecap:butt;stroke-linejoin:miter;opacity:0.2;font-family:&quot;Anthropic Sans&quot;, -apple-system, &quot;system-ui&quot;, &quot;Segoe UI&quot;, sans-serif;font-size:16px;font-weight:400;text-anchor:start;dominant-baseline:auto"/>

<!-- ══════════════════════════════════════════ -->
<!-- WORDMARK                                  -->
<!-- ══════════════════════════════════════════ -->
<text x="640" y="512" text-anchor="middle" font-family="Georgia, 'Times New Roman', serif" font-size="42" font-weight="400" letter-spacing="18" fill="#e0e7ff" opacity="0.92" style="fill:rgb(224, 231, 255);stroke:none;color:rgb(255, 255, 255);stroke-width:1px;stroke-linecap:butt;stroke-linejoin:miter;opacity:0.92;font-family:Georgia, &quot;Times New Roman&quot;, serif;font-size:42px;font-weight:400;text-anchor:middle;dominant-baseline:auto">DAEDELUS</text>

<line x1="490" y1="528" x2="790" y2="528" stroke="#6366f1" stroke-width="0.6" opacity="0.5" style="fill:rgb(0, 0, 0);stroke:rgb(99, 102, 241);color:rgb(255, 255, 255);stroke-width:0.6px;stroke-linecap:butt;stroke-linejoin:miter;opacity:0.5;font-family:&quot;Anthropic Sans&quot;, -apple-system, &quot;system-ui&quot;, &quot;Segoe UI&quot;, sans-serif;font-size:16px;font-weight:400;text-anchor:start;dominant-baseline:auto"/>

<text x="640" y="550" text-anchor="middle" font-family="Georgia, serif" font-size="13" letter-spacing="6" fill="#818cf8" opacity="0.50" style="fill:rgb(129, 140, 248);stroke:none;color:rgb(255, 255, 255);stroke-width:1px;stroke-linecap:butt;stroke-linejoin:miter;opacity:0.5;font-family:Georgia, serif;font-size:13px;font-weight:400;text-anchor:middle;dominant-baseline:auto">YOUR PERSONAL OS</text>

</svg>